<svg xmlns="http://www.w3.org/2000/svg" viewBox="0 0 24 24" fill="black" width="24px" height="24px">
<g id="surface1">
<path style=" stroke:none;fill-rule:nonzero;fill:rgb(0%,0%,0%);fill-opacity:1;" d="M 14.121094 19.5625 L 9.863281 19.5625 C 9.535156 19.5625 9.269531 19.828125 9.269531 20.160156 C 9.269531 20.488281 9.535156 20.753906 9.863281 20.753906 L 14.121094 20.753906 C 14.449219 20.753906 14.71875 20.488281 14.71875 20.160156 C 14.71875 19.828125 14.449219 19.5625 14.121094 19.5625 Z M 14.121094 19.5625 "/>
<path style=" stroke:none;fill-rule:nonzero;fill:rgb(0%,0%,0%);fill-opacity:1;" d="M 10.898438 23.039062 C 10.976562 23.574219 11.4375 23.988281 11.996094 23.988281 C 12.550781 23.988281 13.011719 23.574219 13.09375 23.039062 C 13.824219 22.996094 14.402344 22.398438 14.402344 21.65625 L 9.582031 21.65625 C 9.582031 22.398438 10.164062 22.996094 10.898438 23.039062 Z M 10.898438 23.039062 "/>
<path style=" stroke:none;fill-rule:nonzero;fill:rgb(0%,0%,0%);fill-opacity:1;" d="M 11.996094 3.441406 C 12.433594 3.441406 12.789062 3.085938 12.789062 2.648438 L 12.789062 0.796875 C 12.789062 0.355469 12.433594 0 11.996094 0 C 11.554688 0 11.199219 0.355469 11.199219 0.796875 L 11.199219 2.648438 C 11.199219 3.085938 11.554688 3.441406 11.996094 3.441406 Z M 11.996094 3.441406 "/>
<path style=" stroke:none;fill-rule:nonzero;fill:rgb(0%,0%,0%);fill-opacity:1;" d="M 6.773438 4.601562 C 6.929688 4.816406 7.171875 4.929688 7.417969 4.929688 C 7.578125 4.929688 7.742188 4.882812 7.882812 4.777344 C 8.238281 4.519531 8.320312 4.023438 8.0625 3.667969 L 6.972656 2.167969 C 6.714844 1.8125 6.21875 1.734375 5.859375 1.992188 C 5.503906 2.25 5.425781 2.75 5.683594 3.105469 Z M 6.773438 4.601562 "/>
<path style=" stroke:none;fill-rule:nonzero;fill:rgb(0%,0%,0%);fill-opacity:1;" d="M 17.214844 16.269531 C 16.957031 15.914062 16.460938 15.835938 16.105469 16.09375 C 15.75 16.351562 15.667969 16.847656 15.929688 17.203125 L 17.015625 18.703125 C 17.171875 18.917969 17.414062 19.03125 17.660156 19.03125 C 17.824219 19.03125 17.988281 18.980469 18.128906 18.878906 C 18.484375 18.621094 18.5625 18.121094 18.304688 17.765625 Z M 17.214844 16.269531 "/>
<path style=" stroke:none;fill-rule:nonzero;fill:rgb(0%,0%,0%);fill-opacity:1;" d="M 4.835938 7.273438 L 3.074219 6.699219 C 2.652344 6.5625 2.207031 6.792969 2.070312 7.210938 C 1.933594 7.628906 2.164062 8.078125 2.582031 8.214844 L 4.339844 8.785156 C 4.421875 8.8125 4.507812 8.824219 4.585938 8.824219 C 4.921875 8.824219 5.234375 8.613281 5.34375 8.273438 C 5.480469 7.855469 5.253906 7.40625 4.835938 7.273438 Z M 4.835938 7.273438 "/>
<path style=" stroke:none;fill-rule:nonzero;fill:rgb(0%,0%,0%);fill-opacity:1;" d="M 21.40625 12.65625 L 19.648438 12.085938 C 19.230469 11.949219 18.78125 12.179688 18.644531 12.597656 C 18.507812 13.015625 18.738281 13.464844 19.15625 13.601562 L 20.917969 14.171875 C 21 14.199219 21.082031 14.210938 21.164062 14.210938 C 21.5 14.210938 21.808594 13.996094 21.917969 13.660156 C 22.054688 13.242188 21.828125 12.792969 21.40625 12.65625 Z M 21.40625 12.65625 "/>
<path style=" stroke:none;fill-rule:nonzero;fill:rgb(0%,0%,0%);fill-opacity:1;" d="M 4.34375 12.085938 L 2.582031 12.65625 C 2.164062 12.792969 1.933594 13.242188 2.070312 13.660156 C 2.179688 13.996094 2.488281 14.210938 2.824219 14.210938 C 2.90625 14.210938 2.988281 14.195312 3.070312 14.171875 L 4.832031 13.597656 C 5.25 13.464844 5.480469 13.015625 5.34375 12.597656 C 5.210938 12.179688 4.765625 11.949219 4.34375 12.085938 Z M 4.34375 12.085938 "/>
<path style=" stroke:none;fill-rule:nonzero;fill:rgb(0%,0%,0%);fill-opacity:1;" d="M 19.402344 8.824219 C 19.484375 8.824219 19.566406 8.8125 19.648438 8.785156 L 21.40625 8.214844 C 21.828125 8.078125 22.054688 7.628906 21.917969 7.210938 C 21.785156 6.792969 21.332031 6.566406 20.917969 6.699219 L 19.15625 7.273438 C 18.738281 7.40625 18.507812 7.855469 18.644531 8.273438 C 18.753906 8.609375 19.066406 8.824219 19.402344 8.824219 Z M 19.402344 8.824219 "/>
<path style=" stroke:none;fill-rule:nonzero;fill:rgb(0%,0%,0%);fill-opacity:1;" d="M 6.773438 16.269531 L 5.683594 17.765625 C 5.425781 18.121094 5.503906 18.617188 5.859375 18.878906 C 6 18.980469 6.164062 19.03125 6.324219 19.03125 C 6.574219 19.03125 6.816406 18.917969 6.96875 18.703125 L 8.058594 17.203125 C 8.320312 16.847656 8.238281 16.351562 7.882812 16.09375 C 7.53125 15.832031 7.03125 15.914062 6.773438 16.269531 Z M 6.773438 16.269531 "/>
<path style=" stroke:none;fill-rule:nonzero;fill:rgb(0%,0%,0%);fill-opacity:1;" d="M 17.015625 2.167969 L 15.929688 3.667969 C 15.671875 4.023438 15.75 4.519531 16.105469 4.777344 C 16.246094 4.882812 16.410156 4.929688 16.570312 4.929688 C 16.816406 4.929688 17.0625 4.816406 17.214844 4.601562 L 18.304688 3.105469 C 18.5625 2.75 18.484375 2.25 18.128906 1.992188 C 17.769531 1.734375 17.273438 1.8125 17.015625 2.167969 Z M 17.015625 2.167969 "/>
<path style=" stroke:none;fill-rule:nonzero;fill:rgb(0%,0%,0%);fill-opacity:1;" d="M 17.742188 10.464844 C 17.742188 7.289062 15.167969 4.714844 11.992188 4.714844 C 8.820312 4.714844 6.246094 7.289062 6.246094 10.464844 C 6.246094 11.804688 6.707031 13.035156 7.476562 14.011719 C 8.148438 14.867188 8.789062 15.800781 9.339844 16.742188 L 9.339844 18.648438 L 14.613281 18.648438 L 14.613281 16.789062 C 15.160156 15.875 15.871094 14.824219 16.511719 14.011719 C 17.28125 13.035156 17.742188 11.804688 17.742188 10.464844 Z M 17.742188 10.464844 "/>
</g>
</svg>
