<?xml version="1.0" encoding="UTF-8"?>
<svg xmlns="http://www.w3.org/2000/svg" xmlns:xlink="http://www.w3.org/1999/xlink" width="24px" height="24px" viewBox="0 0 24 24" version="1.1">
<g id="surface1">
<path style=" stroke:none;fill-rule:nonzero;fill:rgb(0%,0%,0%);fill-opacity:1;" d="M 9.0625 5.761719 L 9.0625 1.871094 C 9.0625 1.773438 9.070312 1.675781 9.078125 1.582031 C 4.199219 2.871094 0.601562 7.308594 0.601562 12.59375 C 0.601562 18.882812 5.703125 23.980469 11.992188 23.980469 C 18.28125 23.980469 23.378906 18.882812 23.378906 12.59375 C 23.378906 7.308594 19.78125 2.871094 14.902344 1.582031 C 14.910156 1.675781 14.917969 1.773438 14.917969 1.871094 L 14.917969 5.761719 C 17.5625 6.902344 19.421875 9.535156 19.421875 12.59375 C 19.421875 16.691406 16.089844 20.027344 11.992188 20.027344 C 7.890625 20.027344 4.558594 16.691406 4.558594 12.59375 C 4.558594 9.535156 6.417969 6.902344 9.0625 5.761719 Z M 9.0625 5.761719 "/>
<path style=" stroke:none;fill-rule:nonzero;fill:rgb(0%,0%,0%);fill-opacity:1;" d="M 13.863281 11.507812 L 13.863281 1.871094 C 13.863281 1.6875 13.835938 1.515625 13.785156 1.347656 C 13.558594 0.570312 12.84375 0 11.992188 0 C 11.140625 0 10.421875 0.570312 10.195312 1.347656 C 10.148438 1.515625 10.121094 1.6875 10.121094 1.871094 L 10.121094 11.507812 C 10.121094 12.542969 10.957031 13.378906 11.992188 13.378906 C 13.023438 13.378906 13.863281 12.542969 13.863281 11.507812 Z M 13.863281 11.507812 "/>
</g>
</svg>
