<?xml version="1.0" encoding="UTF-8"?>
<svg xmlns="http://www.w3.org/2000/svg" xmlns:xlink="http://www.w3.org/1999/xlink" width="24px" height="24px" viewBox="0 0 24 24" version="1.1">
<g id="surface1">
<path style=" stroke:none;fill-rule:nonzero;fill:rgb(0%,0%,0%);fill-opacity:1;" d="M 3.929688 12.003906 C 3.929688 8.617188 6.023438 5.714844 8.988281 4.515625 L 10.5 1.480469 C 5.34375 2.210938 1.371094 6.652344 1.371094 12.003906 C 1.371094 16.875 4.660156 20.988281 9.132812 22.242188 L 9.425781 19.65625 C 6.234375 18.578125 3.929688 15.554688 3.929688 12.003906 Z M 3.929688 12.003906 "/>
<path style=" stroke:none;fill-rule:nonzero;fill:rgb(0%,0%,0%);fill-opacity:1;" d="M 22.628906 12.003906 C 22.628906 7.136719 19.339844 3.023438 14.867188 1.765625 L 14.570312 4.351562 C 17.765625 5.429688 20.070312 8.453125 20.070312 12.003906 C 20.070312 15.371094 18 18.261719 15.066406 19.472656 L 13.511719 22.527344 C 18.660156 21.789062 22.628906 17.351562 22.628906 12.003906 Z M 22.628906 12.003906 "/>
<path style=" stroke:none;fill-rule:nonzero;fill:rgb(0%,0%,0%);fill-opacity:1;" d="M 18.085938 10.714844 C 18.183594 10.519531 18.175781 10.300781 18.058594 10.109375 C 17.945312 9.921875 17.738281 9.84375 17.515625 9.84375 L 12.652344 9.84375 L 13.699219 0.742188 C 13.734375 0.433594 13.542969 0.117188 13.246094 0.0273438 C 13.183594 0.0078125 13.121094 0 13.058594 0 C 12.824219 0 12.601562 0.132812 12.488281 0.355469 L 5.914062 13.570312 C 5.8125 13.769531 5.824219 14.03125 5.941406 14.222656 C 6.058594 14.410156 6.265625 14.5625 6.484375 14.5625 L 11.285156 14.5625 L 10.300781 23.324219 C 10.265625 23.628906 10.457031 23.886719 10.753906 23.976562 C 10.8125 23.996094 10.875 24 10.9375 24 C 11.171875 24 11.394531 23.867188 11.507812 23.648438 Z M 18.085938 10.714844 "/>
</g>
</svg>
