<?xml version="1.0" encoding="UTF-8"?>
<svg xmlns="http://www.w3.org/2000/svg" xmlns:xlink="http://www.w3.org/1999/xlink" width="24px" height="24px" viewBox="0 0 24 24" version="1.1">
<g id="surface1">
<path style=" stroke:none;fill-rule:nonzero;fill:rgb(0%,0%,0%);fill-opacity:1;" d="M 12 23.484375 C 5.925781 23.484375 0.984375 18.695312 0.984375 12.804688 C 0.984375 8.691406 3.355469 5.011719 7.175781 3.203125 C 7.65625 2.976562 8.226562 3.179688 8.453125 3.65625 C 8.675781 4.132812 8.476562 4.707031 7.996094 4.929688 C 4.851562 6.421875 2.902344 9.4375 2.902344 12.804688 C 2.902344 17.640625 6.984375 21.570312 12 21.570312 C 17.015625 21.570312 21.097656 17.640625 21.097656 12.804688 C 21.097656 9.414062 19.035156 6.296875 15.839844 4.859375 C 15.355469 4.644531 15.140625 4.078125 15.355469 3.59375 C 15.570312 3.113281 16.140625 2.898438 16.621094 3.117188 C 20.507812 4.855469 23.015625 8.664062 23.015625 12.804688 C 23.015625 18.695312 18.074219 23.484375 12 23.484375 Z M 12 23.484375 "/>
<path style=" stroke:none;fill-rule:nonzero;fill:rgb(0%,0%,0%);fill-opacity:1;" d="M 12 13.496094 C 11.46875 13.496094 11.042969 13.070312 11.042969 12.539062 L 11.042969 1.472656 C 11.042969 0.941406 11.476562 0.515625 12 0.515625 C 12.53125 0.515625 12.957031 0.941406 12.957031 1.472656 L 12.957031 12.539062 C 12.957031 13.070312 12.53125 13.496094 12 13.496094 Z M 12 13.496094 "/>
</g>
</svg>
