<?xml version="1.0" encoding="UTF-8"?>
<svg xmlns="http://www.w3.org/2000/svg" xmlns:xlink="http://www.w3.org/1999/xlink" width="24px" height="24px" viewBox="0 0 24 24" version="1.1">
<g id="surface1">
<path style=" stroke:none;fill-rule:nonzero;fill:rgb(0%,0%,0%);fill-opacity:1;" d="M 20.667969 9.945312 C 20.546875 9.671875 20.277344 9.492188 19.976562 9.492188 L 13.695312 9.492188 L 16.71875 1.011719 C 16.839844 0.671875 16.707031 0.296875 16.398438 0.109375 C 16.089844 -0.078125 15.695312 -0.0195312 15.453125 0.242188 L 3.46875 13.238281 C 3.265625 13.460938 3.210938 13.78125 3.332031 14.054688 C 3.453125 14.328125 3.722656 14.507812 4.023438 14.507812 L 8.109375 14.507812 C 8.527344 14.507812 8.863281 14.167969 8.863281 13.75 C 8.863281 13.332031 8.527344 12.996094 8.109375 12.996094 L 5.75 12.996094 L 14.050781 3.992188 L 11.910156 9.996094 C 11.828125 10.226562 11.867188 10.484375 12.007812 10.683594 C 12.148438 10.886719 12.382812 11.003906 12.628906 11.003906 L 18.25 11.003906 L 9.949219 20.003906 L 12.089844 14.003906 C 12.175781 13.773438 12.140625 13.515625 11.996094 13.316406 C 11.855469 13.113281 11.625 12.996094 11.378906 12.996094 L 11.371094 12.996094 C 11.015625 12.996094 10.722656 13.242188 10.640625 13.570312 L 7.28125 22.988281 C 7.160156 23.328125 7.292969 23.703125 7.601562 23.890625 C 7.722656 23.964844 7.859375 24 7.992188 24 C 8.199219 24 8.402344 23.917969 8.546875 23.757812 L 20.53125 10.761719 C 20.734375 10.539062 20.789062 10.21875 20.667969 9.945312 Z M 20.667969 9.945312 "/>
</g>
</svg>
